# Blender 5.2.1 LTS
# www.blender.org
mtllib 20p.mtl
o Text
v 0.594054 -0.230000 0.080000
v 0.594054 0.449000 0.080000
v 0.748054 0.449000 0.080000
v 1.001054 0.221000 0.080000
v 0.773054 -0.009000 0.080000
v 0.683054 0.011000 0.080000
v 0.683054 -0.230000 0.080000
v 0.767054 0.071000 0.080000
v 0.910054 0.222000 0.080000
v 0.764054 0.369000 0.080000
v 0.683054 0.369000 0.080000
v 0.683054 0.091000 0.080000
v 0.067054 0.341000 0.080000
v 0.287054 0.691000 0.080000
v 0.507054 0.341000 0.080000
v 0.287054 -0.009000 0.080000
v 0.165054 0.341000 0.080000
v 0.287054 0.084000 0.080000
v 0.409054 0.341000 0.080000
v 0.287054 0.598000 0.080000
v -0.428946 -0.000000 0.080000
v -0.428946 0.007000 0.080000
v -0.191946 0.321000 0.080000
v -0.143946 0.467000 0.080000
v -0.260946 0.595000 0.080000
v -0.414946 0.503000 0.080000
v -0.414946 0.626000 0.080000
v -0.253946 0.691000 0.080000
v -0.045946 0.478000 0.080000
v -0.257946 0.093000 0.080000
v 0.003054 0.093000 0.080000
v 0.003054 -0.000000 0.080000
v -0.713946 0.394000 0.080000
v -0.518946 0.394000 0.080000
v -0.518946 0.312000 0.080000
v -0.713946 0.312000 0.080000
v -0.713946 0.117000 0.080000
v -0.795946 0.117000 0.080000
v -0.795946 0.312000 0.080000
v -0.990946 0.312000 0.080000
v -0.990946 0.394000 0.080000
v -0.795946 0.394000 0.080000
v -0.795946 0.589000 0.080000
v -0.713946 0.589000 0.080000
v 0.594054 -0.230000 -0.080000
v 0.594054 0.449000 -0.080000
v 0.748054 0.449000 -0.080000
v 1.001054 0.221000 -0.080000
v 0.773054 -0.009000 -0.080000
v 0.683054 0.011000 -0.080000
v 0.683054 -0.230000 -0.080000
v 0.767054 0.071000 -0.080000
v 0.910054 0.222000 -0.080000
v 0.764054 0.369000 -0.080000
v 0.683054 0.369000 -0.080000
v 0.683054 0.091000 -0.080000
v 0.067054 0.341000 -0.080000
v 0.287054 0.691000 -0.080000
v 0.507054 0.341000 -0.080000
v 0.287054 -0.009000 -0.080000
v 0.165054 0.341000 -0.080000
v 0.287054 0.084000 -0.080000
v 0.409054 0.341000 -0.080000
v 0.287054 0.598000 -0.080000
v -0.428946 0.000000 -0.080000
v -0.428946 0.007000 -0.080000
v -0.191946 0.321000 -0.080000
v -0.143946 0.467000 -0.080000
v -0.260946 0.595000 -0.080000
v -0.414946 0.503000 -0.080000
v -0.414946 0.626000 -0.080000
v -0.253946 0.691000 -0.080000
v -0.045946 0.478000 -0.080000
v -0.257946 0.093000 -0.080000
v 0.003054 0.093000 -0.080000
v 0.003054 0.000000 -0.080000
v -0.713946 0.394000 -0.080000
v -0.518946 0.394000 -0.080000
v -0.518946 0.312000 -0.080000
v -0.713946 0.312000 -0.080000
v -0.713946 0.117000 -0.080000
v -0.795946 0.117000 -0.080000
v -0.795946 0.312000 -0.080000
v -0.990946 0.312000 -0.080000
v -0.990946 0.394000 -0.080000
v -0.795946 0.394000 -0.080000
v -0.795946 0.589000 -0.080000
v -0.713946 0.589000 -0.080000
v -0.713946 0.394000 -0.080000
v -0.713946 0.394000 0.080000
v -0.518946 0.394000 -0.080000
v -0.518946 0.394000 0.080000
v -0.518946 0.312000 -0.080000
v -0.518946 0.312000 0.080000
v -0.713946 0.312000 -0.080000
v -0.713946 0.312000 0.080000
v -0.713946 0.117000 -0.080000
v -0.713946 0.117000 0.080000
v -0.795946 0.117000 -0.080000
v -0.795946 0.117000 0.080000
v -0.795946 0.312000 -0.080000
v -0.795946 0.312000 0.080000
v -0.990946 0.312000 -0.080000
v -0.990946 0.312000 0.080000
v -0.990946 0.394000 -0.080000
v -0.990946 0.394000 0.080000
v -0.795946 0.394000 -0.080000
v -0.795946 0.394000 0.080000
v -0.795946 0.589000 -0.080000
v -0.795946 0.589000 0.080000
v -0.713946 0.589000 -0.080000
v -0.713946 0.589000 0.080000
v -0.428946 0.000000 -0.080000
v -0.428946 -0.000000 0.080000
v -0.428946 0.007000 -0.080000
v -0.428946 0.007000 0.080000
v -0.191946 0.321000 -0.080000
v -0.191946 0.321000 0.080000
v -0.143946 0.467000 -0.080000
v -0.143946 0.467000 0.080000
v -0.260946 0.595000 -0.080000
v -0.260946 0.595000 0.080000
v -0.414946 0.503000 -0.080000
v -0.414946 0.503000 0.080000
v -0.414946 0.626000 -0.080000
v -0.414946 0.626000 0.080000
v -0.253946 0.691000 -0.080000
v -0.253946 0.691000 0.080000
v -0.045946 0.478000 -0.080000
v -0.045946 0.478000 0.080000
v -0.257946 0.093000 -0.080000
v -0.257946 0.093000 0.080000
v 0.003054 0.093000 -0.080000
v 0.003054 0.093000 0.080000
v 0.003054 0.000000 -0.080000
v 0.003054 -0.000000 0.080000
v 0.067054 0.341000 -0.080000
v 0.067054 0.341000 0.080000
v 0.287054 0.691000 -0.080000
v 0.287054 0.691000 0.080000
v 0.507054 0.341000 -0.080000
v 0.507054 0.341000 0.080000
v 0.287054 -0.009000 -0.080000
v 0.287054 -0.009000 0.080000
v 0.165054 0.341000 -0.080000
v 0.165054 0.341000 0.080000
v 0.287054 0.084000 -0.080000
v 0.287054 0.084000 0.080000
v 0.409054 0.341000 -0.080000
v 0.409054 0.341000 0.080000
v 0.287054 0.598000 -0.080000
v 0.287054 0.598000 0.080000
v 0.594054 -0.230000 -0.080000
v 0.594054 -0.230000 0.080000
v 0.594054 0.449000 -0.080000
v 0.594054 0.449000 0.080000
v 0.748054 0.449000 -0.080000
v 0.748054 0.449000 0.080000
v 1.001054 0.221000 -0.080000
v 1.001054 0.221000 0.080000
v 0.773054 -0.009000 -0.080000
v 0.773054 -0.009000 0.080000
v 0.683054 0.011000 -0.080000
v 0.683054 0.011000 0.080000
v 0.683054 -0.230000 -0.080000
v 0.683054 -0.230000 0.080000
v 0.767054 0.071000 -0.080000
v 0.767054 0.071000 0.080000
v 0.910054 0.222000 -0.080000
v 0.910054 0.222000 0.080000
v 0.764054 0.369000 -0.080000
v 0.764054 0.369000 0.080000
v 0.683054 0.369000 -0.080000
v 0.683054 0.369000 0.080000
v 0.683054 0.091000 -0.080000
v 0.683054 0.091000 0.080000
vn -0.0000 -0.0000 1.0000
vn -0.0000 -0.0000 -1.0000
vn 0.7071 0.7071 -0.0000
vn 0.7071 -0.7071 -0.0000
vn -0.7071 -0.7071 -0.0000
vn -0.7071 0.7071 -0.0000
vn -0.9482 0.3177 -0.0000
vn -0.8860 0.4636 -0.0000
vn -0.9777 -0.2099 -0.0000
vn -0.1454 -0.9894 -0.0000
vn -0.4935 -0.8698 -0.0000
vn -0.1453 -0.9894 -0.0000
vn -0.8290 0.5593 -0.0000
vn -0.4936 -0.8697 -0.0000
vn 0.2053 0.9787 -0.0000
vn 0.9909 0.1347 -0.0000
vn 0.8609 0.5088 -0.0000
vn 0.8609 0.5087 -0.0000
vn -0.0000 1.0000 -0.0000
vn -1.0000 -0.0000 -0.0000
vn 1.0000 -0.0000 -0.0000
vn -0.0000 -1.0000 -0.0000
vn 0.3586 0.9335 -0.0000
vn 0.9996 0.0281 -0.0000
vn 0.2817 -0.9595 -0.0000
vn 0.9996 0.0282 -0.0000
vn 0.6257 -0.7800 -0.0000
vn -0.9999 -0.0119 -0.0000
vn -0.2854 0.9584 -0.0000
vn -0.3843 -0.9232 -0.0000
vn 0.7847 0.6198 -0.0000
vt 0.000000 0.000000
vt 0.545455 0.000000
vt 0.454545 0.000000
vt 1.000000 0.000000
vt 0.090909 0.000000
vt 0.909091 0.000000
vt 0.727273 0.000000
vt 0.363636 0.000000
vt 0.272727 0.000000
vt 0.636364 0.000000
vt 0.818182 0.000000
vt 0.181818 0.000000
vt 0.428571 0.000000
vt 0.714286 0.000000
vt 0.571429 0.000000
vt 0.857143 0.000000
vt 0.285714 0.000000
vt 0.142857 0.000000
vt 0.083333 1.000000
vt 0.000000 1.000000
vt 0.166667 1.000000
vt 0.083333 0.000000
vt 0.250000 1.000000
vt 0.166667 0.000000
vt 0.333333 1.000000
vt 0.250000 0.000000
vt 0.416667 1.000000
vt 0.333333 0.000000
vt 0.500000 1.000000
vt 0.416667 0.000000
vt 0.583333 1.000000
vt 0.500000 0.000000
vt 0.666667 1.000000
vt 0.583333 0.000000
vt 0.750000 1.000000
vt 0.666667 0.000000
vt 0.833333 1.000000
vt 0.750000 0.000000
vt 0.916667 1.000000
vt 0.833333 0.000000
vt 1.000000 1.000000
vt 0.916667 0.000000
vt 0.142857 1.000000
vt 0.285714 1.000000
vt 0.428571 1.000000
vt 0.571429 1.000000
vt 0.714286 1.000000
vt 0.857143 1.000000
vt 0.200000 1.000000
vt 0.400000 1.000000
vt 0.200000 0.000000
vt 0.600000 1.000000
vt 0.400000 0.000000
vt 0.800000 1.000000
vt 0.600000 0.000000
vt 0.800000 0.000000
s 0
usemtl Material.007
f 1/1/1 7/2/1 6/3/1
f 6/3/1 12/4/1 1/1/1
f 2/5/1 1/1/1 12/4/1
f 12/4/1 11/6/1 2/5/1
f 9/7/1 5/8/1 4/9/1
f 5/8/1 9/7/1 8/10/1
f 9/7/1 4/9/1 10/11/1
f 3/12/1 10/11/1 4/9/1
f 5/8/1 8/10/1 6/3/1
f 12/4/1 6/3/1 8/10/1
f 10/11/1 3/12/1 11/6/1
f 2/5/1 11/6/1 3/12/1
f 16/13/1 18/14/1 13/1/1
f 17/15/1 13/1/1 18/14/1
f 19/16/1 15/17/1 20/4/1
f 14/18/1 20/4/1 15/17/1
f 18/14/1 16/13/1 15/17/1
f 15/17/1 19/16/1 18/14/1
f 13/1/1 17/15/1 20/4/1
f 20/4/1 14/18/1 13/1/1
f 22/5/1 21/1/1 30/11/1
f 25/8/1 27/2/1 26/3/1
f 24/9/1 23/12/1 29/7/1
f 30/11/1 21/1/1 32/4/1
f 32/4/1 31/6/1 30/11/1
f 24/9/1 29/7/1 25/8/1
f 29/7/1 28/10/1 25/8/1
f 27/2/1 25/8/1 28/10/1
f 29/7/1 23/12/1 30/11/1
f 22/5/1 30/11/1 23/12/1
f 41/7/1 40/10/1 39/2/1
f 39/2/1 42/11/1 41/7/1
f 33/1/1 36/9/1 35/12/1
f 35/12/1 34/5/1 33/1/1
f 39/2/1 38/3/1 37/8/1
f 37/8/1 36/9/1 39/2/1
f 42/11/1 39/2/1 36/9/1
f 36/9/1 33/1/1 42/11/1
f 43/6/1 42/11/1 33/1/1
f 33/1/1 44/4/1 43/6/1
f 45/1/2 50/3/2 51/2/2
f 50/3/2 45/1/2 56/4/2
f 46/5/2 56/4/2 45/1/2
f 56/4/2 46/5/2 55/6/2
f 53/7/2 48/9/2 49/8/2
f 49/8/2 52/10/2 53/7/2
f 53/7/2 54/11/2 48/9/2
f 47/12/2 48/9/2 54/11/2
f 49/8/2 50/3/2 52/10/2
f 56/4/2 52/10/2 50/3/2
f 54/11/2 55/6/2 47/12/2
f 46/5/2 47/12/2 55/6/2
f 60/13/2 57/1/2 62/14/2
f 61/15/2 62/14/2 57/1/2
f 63/16/2 64/4/2 59/17/2
f 58/18/2 59/17/2 64/4/2
f 62/14/2 59/17/2 60/13/2
f 59/17/2 62/14/2 63/16/2
f 57/1/2 64/4/2 61/15/2
f 64/4/2 57/1/2 58/18/2
f 66/5/2 74/11/2 65/1/2
f 69/8/2 70/3/2 71/2/2
f 68/9/2 73/7/2 67/12/2
f 74/11/2 76/4/2 65/1/2
f 76/4/2 74/11/2 75/6/2
f 68/9/2 69/8/2 73/7/2
f 73/7/2 69/8/2 72/10/2
f 71/2/2 72/10/2 69/8/2
f 73/7/2 74/11/2 67/12/2
f 66/5/2 67/12/2 74/11/2
f 85/7/2 83/2/2 84/10/2
f 83/2/2 85/7/2 86/11/2
f 77/1/2 79/12/2 80/9/2
f 79/12/2 77/1/2 78/5/2
f 83/2/2 81/8/2 82/3/2
f 81/8/2 83/2/2 80/9/2
f 86/11/2 80/9/2 83/2/2
f 80/9/2 86/11/2 77/1/2
f 87/6/2 77/1/2 86/11/2
f 77/1/2 87/6/2 88/4/2
s 1
f 92/19/3 89/1/3 90/20/3
f 94/21/4 91/22/3 92/19/3
f 96/23/4 93/24/4 94/21/4
f 98/25/4 95/26/4 96/23/4
f 100/27/5 97/28/4 98/25/4
f 102/29/5 99/30/5 100/27/5
f 104/31/5 101/32/5 102/29/5
f 106/33/6 103/34/5 104/31/5
f 108/35/6 105/36/6 106/33/6
f 110/37/6 107/38/6 108/35/6
f 112/39/3 109/40/6 110/37/6
f 90/41/3 111/42/3 112/39/3
f 116/19/7 113/1/5 114/20/5
f 118/21/8 115/22/7 116/19/7
f 120/23/9 117/24/8 118/21/8
f 122/25/10 119/26/9 120/23/9
f 124/27/11 121/28/12 122/25/10
f 126/29/13 123/30/14 124/27/11
f 128/31/15 125/32/13 126/29/13
f 130/33/16 127/34/15 128/31/15
f 132/35/17 129/36/16 130/33/16
f 134/37/3 131/38/18 132/35/17
f 136/39/4 133/40/3 134/37/3
f 114/41/5 135/42/4 136/39/4
f 140/23/19 137/1/20 138/20/20
f 142/29/21 139/26/19 140/23/19
f 144/35/22 141/32/21 142/29/21
f 138/41/20 143/38/22 144/35/22
f 148/23/19 145/1/21 146/20/21
f 150/29/20 147/26/19 148/23/19
f 152/35/22 149/32/20 150/29/20
f 146/41/21 151/38/22 152/35/22
f 156/43/6 153/1/5 154/20/5
f 158/44/23 155/18/6 156/43/6
f 160/45/24 157/17/23 158/44/23
f 162/46/25 159/13/26 160/45/24
f 164/47/27 161/15/25 162/46/25
f 166/48/4 163/14/27 164/47/27
f 154/41/5 165/16/4 166/48/4
f 170/49/28 167/1/29 168/20/29
f 172/50/30 169/51/28 170/49/28
f 174/52/4 171/53/30 172/50/30
f 176/54/31 173/55/4 174/52/4
f 168/41/29 175/56/31 176/54/31
f 92/19/3 91/22/3 89/1/3
f 94/21/4 93/24/4 91/22/3
f 96/23/4 95/26/4 93/24/4
f 98/25/4 97/28/4 95/26/4
f 100/27/5 99/30/5 97/28/4
f 102/29/5 101/32/5 99/30/5
f 104/31/5 103/34/5 101/32/5
f 106/33/6 105/36/6 103/34/5
f 108/35/6 107/38/6 105/36/6
f 110/37/6 109/40/6 107/38/6
f 112/39/3 111/42/3 109/40/6
f 90/41/3 89/4/3 111/42/3
f 116/19/7 115/22/7 113/1/5
f 118/21/8 117/24/8 115/22/7
f 120/23/9 119/26/9 117/24/8
f 122/25/10 121/28/12 119/26/9
f 124/27/11 123/30/14 121/28/12
f 126/29/13 125/32/13 123/30/14
f 128/31/15 127/34/15 125/32/13
f 130/33/16 129/36/16 127/34/15
f 132/35/17 131/38/18 129/36/16
f 134/37/3 133/40/3 131/38/18
f 136/39/4 135/42/4 133/40/3
f 114/41/5 113/4/5 135/42/4
f 140/23/19 139/26/19 137/1/20
f 142/29/21 141/32/21 139/26/19
f 144/35/22 143/38/22 141/32/21
f 138/41/20 137/4/20 143/38/22
f 148/23/19 147/26/19 145/1/21
f 150/29/20 149/32/20 147/26/19
f 152/35/22 151/38/22 149/32/20
f 146/41/21 145/4/21 151/38/22
f 156/43/6 155/18/6 153/1/5
f 158/44/23 157/17/23 155/18/6
f 160/45/24 159/13/26 157/17/23
f 162/46/25 161/15/25 159/13/26
f 164/47/27 163/14/27 161/15/25
f 166/48/4 165/16/4 163/14/27
f 154/41/5 153/4/5 165/16/4
f 170/49/28 169/51/28 167/1/29
f 172/50/30 171/53/30 169/51/28
f 174/52/4 173/55/4 171/53/30
f 176/54/31 175/56/31 173/55/4
f 168/41/29 167/4/29 175/56/31
o Cylinder
v 0.045152 0.809381 -0.450575
v 0.045152 0.911448 -0.374307
v 0.435362 0.809381 -0.225288
v 0.369312 0.911448 -0.187154
v 0.435362 0.809381 0.225288
v 0.369312 0.911448 0.187154
v 0.045152 0.809381 0.450575
v 0.045152 0.911448 0.374307
v -0.345057 0.809381 0.225288
v -0.279007 0.911448 0.187154
v -0.345057 0.809381 -0.225288
v -0.279007 0.911448 -0.187154
v 0.435362 0.911448 -0.225288
v 0.045152 0.911448 -0.450575
v 0.435362 0.911448 0.225288
v 0.045152 0.911448 0.450575
v -0.345057 0.911448 0.225288
v -0.345057 0.911448 -0.225288
v 0.279561 1.289980 -0.287163
v 0.176639 1.289980 -0.346586
v 0.176639 1.289980 0.346586
v 0.279561 1.289980 0.287163
v -0.320743 1.289980 -0.059422
v -0.320743 1.289980 0.059422
v 0.262140 1.289980 -0.277105
v 0.176639 1.289980 -0.326469
v 0.176639 1.289980 0.326469
v 0.262140 1.289980 0.277105
v -0.303321 1.289980 -0.049364
v -0.303321 1.289980 0.049364
vn 0.5000 -0.0000 -0.8660
vn 1.0000 -0.0000 -0.0000
vn 0.5000 -0.0000 0.8660
vn -0.5000 -0.0000 0.8660
vn -1.0000 -0.0000 -0.0000
vn -0.5000 -0.0000 -0.8660
vn -0.0000 -1.0000 -0.0000
vn -0.9446 0.3281 -0.0000
vn -0.0000 1.0000 -0.0000
vn 0.4723 0.3281 0.8181
vn 0.4990 0.0641 -0.8642
vn -0.4990 0.0641 0.8642
vn 0.4990 0.0641 0.8642
vn 0.4723 0.3281 -0.8181
vn -0.4990 0.0641 -0.8642
vn 0.9979 0.0641 -0.0000
vn -0.9979 0.0641 -0.0000
vt 1.000000 1.000000
vt 0.833333 0.500000
vt 1.000000 0.500000
vt 0.833333 1.000000
vt 0.666667 0.500000
vt 0.666667 1.000000
vt 0.500000 0.500000
vt 0.500000 1.000000
vt 0.333333 0.500000
vt 0.333333 1.000000
vt 0.166667 0.500000
vt 0.166667 1.000000
vt -0.000000 0.500000
vt 0.957846 0.370000
vt 0.750000 0.010000
vt 0.542154 0.370000
vt 0.250000 0.449376
vt 0.250000 0.490000
vt 0.422664 0.150312
vt 0.457846 0.370000
vt 0.422664 0.349688
vt 0.077336 0.150312
vt 0.250000 0.010000
vt 0.250000 0.050624
vt 0.042154 0.370000
vt 0.077336 0.349688
vt 0.457846 0.130000
vt 0.042154 0.130000
vt -0.000000 1.000000
vt 0.750000 0.490000
vt 0.957846 0.130000
vt 0.542154 0.130000
s 0
usemtl Material.001
f 191/62/34 183/63/34 181/61/34
f 192/64/35 185/65/35 183/63/35
f 178/73/39 196/74/39 190/57/39
f 182/75/40 189/76/40 180/77/40
f 186/78/40 192/79/40 184/80/40
f 178/73/40 194/81/40 188/82/40
f 201/77/40 196/74/40 202/73/40
f 204/75/40 197/79/40 198/83/40
f 205/82/40 200/84/40 206/78/40
f 195/76/41 180/77/41 189/60/41
f 180/77/43 202/73/43 178/73/43
f 198/83/44 192/79/44 191/83/44
f 182/75/45 198/83/45 191/83/45
f 184/80/46 204/75/46 182/75/46
f 197/79/39 184/80/39 192/79/39
f 178/73/40 186/78/40 182/75/40
f 188/82/47 206/78/47 186/78/47
f 199/81/45 188/82/45 194/81/45
f 186/78/41 200/84/41 193/66/41
f 191/62/34 192/64/34 183/63/34
f 192/64/35 193/66/35 185/65/35
f 178/73/39 202/73/39 196/74/39
f 182/75/40 191/83/40 189/76/40
f 186/78/40 193/84/40 192/79/40
f 178/73/40 190/74/40 194/81/40
f 201/77/40 195/76/40 196/74/40
f 204/75/40 203/80/40 197/79/40
f 205/82/40 199/81/40 200/84/40
f 195/76/41 201/77/41 180/77/41
f 180/77/43 201/77/43 202/73/43
f 198/83/44 197/79/44 192/79/44
f 182/75/45 204/75/45 198/83/45
f 184/80/46 203/80/46 204/75/46
f 197/79/39 203/80/39 184/80/39
f 182/75/40 180/77/40 178/73/40
f 178/73/40 188/82/40 186/78/40
f 186/78/40 184/80/40 182/75/40
f 188/82/47 205/82/47 206/78/47
f 199/81/45 205/82/45 188/82/45
f 186/78/41 206/78/41 200/84/41
usemtl Material.002
f 189/60/33 181/61/33 179/58/33
f 193/66/36 187/67/36 185/65/36
f 200/84/48 194/81/48 193/66/48
f 189/60/33 191/62/33 181/61/33
f 193/66/36 194/68/36 187/67/36
f 200/84/48 199/81/48 194/81/48
usemtl Material.003
f 190/57/32 179/58/32 177/59/32
f 194/68/37 177/69/37 187/67/37
f 179/70/38 183/71/38 187/72/38
f 196/74/42 189/60/42 190/57/42
f 190/57/32 189/60/32 179/58/32
f 194/68/37 190/85/37 177/69/37
f 187/72/38 177/86/38 179/70/38
f 179/70/38 181/87/38 183/71/38
f 183/71/38 185/88/38 187/72/38
f 196/74/42 195/76/42 189/60/42
