# Blender 5.1.0
# www.blender.org
mtllib Board.mtl
o Cube.002
v -0.816866 0.019844 0.475014
v -0.816866 0.076953 0.475014
v -0.816866 0.019844 -0.196326
v -0.816866 0.076953 -0.196326
v -0.145525 0.019844 0.475014
v -0.145525 0.076953 0.475014
v -0.145525 0.019844 -0.196326
v -0.145525 0.076953 -0.196326
vn -1.0000 -0.0000 -0.0000
vn -0.0000 -0.0000 -1.0000
vn 1.0000 -0.0000 -0.0000
vn -0.0000 -0.0000 1.0000
vn -0.0000 1.0000 -0.0000
vt 0.625000 0.000000
vt 0.375000 0.250000
vt 0.375000 0.000000
vt 0.625000 0.250000
vt 0.375000 0.500000
vt 0.625000 0.500000
vt 0.375000 0.750000
vt 0.625000 0.750000
vt 0.375000 1.000000
vt 0.875000 0.500000
vt 0.625000 1.000000
vt 0.875000 0.750000
s 0
usemtl Material.007
f 2/1/1 3/2/1 1/3/1
f 4/4/2 7/5/2 3/2/2
f 8/6/3 5/7/3 7/5/3
f 6/8/4 1/9/4 5/7/4
f 4/10/5 6/8/5 8/6/5
f 2/1/1 4/4/1 3/2/1
f 4/4/2 8/6/2 7/5/2
f 8/6/3 6/8/3 5/7/3
f 6/8/4 2/11/4 1/9/4
f 4/10/5 2/12/5 6/8/5
o Cube.003
v -0.100585 0.003977 -0.811148
v -0.100585 0.078402 -0.811148
v -0.100585 0.003977 -0.967209
v -0.100585 0.078402 -0.967209
v 1.220775 0.003977 -0.811148
v 1.220775 0.078402 -0.811148
v 1.220775 0.003977 -0.967209
v 1.220775 0.078402 -0.967209
vn -1.0000 -0.0000 -0.0000
vn -0.0000 -0.0000 -1.0000
vn 1.0000 -0.0000 -0.0000
vn -0.0000 -0.0000 1.0000
vn -0.0000 -1.0000 -0.0000
vn -0.0000 1.0000 -0.0000
vt 0.625000 0.000000
vt 0.375000 0.250000
vt 0.375000 0.000000
vt 0.625000 0.250000
vt 0.375000 0.500000
vt 0.625000 0.500000
vt 0.375000 0.750000
vt 0.625000 0.750000
vt 0.375000 1.000000
vt 0.125000 0.750000
vt 0.125000 0.500000
vt 0.875000 0.500000
vt 0.625000 1.000000
vt 0.875000 0.750000
s 0
usemtl Material.012
f 10/13/6 11/14/6 9/15/6
f 12/16/7 15/17/7 11/14/7
f 16/18/8 13/19/8 15/17/8
f 14/20/9 9/21/9 13/19/9
f 15/17/10 9/22/10 11/23/10
f 12/24/11 14/20/11 16/18/11
f 10/13/6 12/16/6 11/14/6
f 12/16/7 16/18/7 15/17/7
f 16/18/8 14/20/8 13/19/8
f 14/20/9 10/25/9 9/21/9
f 15/17/10 13/19/10 9/22/10
f 12/24/11 10/26/11 14/20/11
o Cube.004
v -1.141596 -0.007425 0.707147
v -1.141596 0.220374 0.707147
v -1.297657 -0.007425 0.707147
v -1.297657 0.220374 0.707147
v -1.141596 -0.007425 -0.614213
v -1.141596 0.220374 -0.614213
v -1.297657 -0.007425 -0.614213
v -1.297657 0.220374 -0.614213
vn -0.0000 -0.0000 1.0000
vn -1.0000 -0.0000 -0.0000
vn -0.0000 -0.0000 -1.0000
vn 1.0000 -0.0000 -0.0000
vn -0.0000 1.0000 -0.0000
vt 0.625000 0.000000
vt 0.375000 0.250000
vt 0.375000 0.000000
vt 0.625000 0.250000
vt 0.375000 0.500000
vt 0.625000 0.500000
vt 0.375000 0.750000
vt 0.625000 0.750000
vt 0.375000 1.000000
vt 0.875000 0.500000
vt 0.625000 1.000000
vt 0.875000 0.750000
s 0
usemtl Material.007
f 18/27/12 19/28/12 17/29/12
f 20/30/13 23/31/13 19/28/13
f 24/32/14 21/33/14 23/31/14
f 22/34/15 17/35/15 21/33/15
f 20/36/16 22/34/16 24/32/16
f 18/27/12 20/30/12 19/28/12
f 20/30/13 24/32/13 23/31/13
f 24/32/14 22/34/14 21/33/14
f 22/34/15 18/37/15 17/35/15
f 20/36/16 18/38/16 22/34/16
o Cube.005
v -0.875398 -0.007425 0.707147
v -0.875398 0.220374 0.707147
v -1.031459 -0.007425 0.707147
v -1.031459 0.220374 0.707147
v -0.875398 -0.007425 -0.614213
v -0.875398 0.220374 -0.614213
v -1.031459 -0.007425 -0.614213
v -1.031459 0.220374 -0.614213
vn -0.0000 -0.0000 1.0000
vn -1.0000 -0.0000 -0.0000
vn -0.0000 -0.0000 -1.0000
vn 1.0000 -0.0000 -0.0000
vn -0.0000 1.0000 -0.0000
vt 0.625000 0.000000
vt 0.375000 0.250000
vt 0.375000 0.000000
vt 0.625000 0.250000
vt 0.375000 0.500000
vt 0.625000 0.500000
vt 0.375000 0.750000
vt 0.625000 0.750000
vt 0.375000 1.000000
vt 0.875000 0.500000
vt 0.625000 1.000000
vt 0.875000 0.750000
s 0
usemtl Material.007
f 26/39/17 27/40/17 25/41/17
f 28/42/18 31/43/18 27/40/18
f 32/44/19 29/45/19 31/43/19
f 30/46/20 25/47/20 29/45/20
f 28/48/21 30/46/21 32/44/21
f 26/39/17 28/42/17 27/40/17
f 28/42/18 32/44/18 31/43/18
f 32/44/19 30/46/19 29/45/19
f 30/46/20 26/49/20 25/47/20
f 28/48/21 26/50/21 30/46/21
o Cube.007
v 0.980716 0.006927 0.984939
v 0.980716 0.162989 0.984939
v 0.980716 0.006927 0.828877
v 0.980716 0.162989 0.828877
v 1.136777 0.006927 0.984939
v 1.136777 0.162989 0.984939
v 1.136777 0.006927 0.828877
v 1.136777 0.162989 0.828877
vn -1.0000 -0.0000 -0.0000
vn -0.0000 -0.0000 -1.0000
vn 1.0000 -0.0000 -0.0000
vn -0.0000 -0.0000 1.0000
vn -0.0000 1.0000 -0.0000
vt 0.625000 0.000000
vt 0.375000 0.250000
vt 0.375000 0.000000
vt 0.625000 0.250000
vt 0.375000 0.500000
vt 0.625000 0.500000
vt 0.375000 0.750000
vt 0.625000 0.750000
vt 0.375000 1.000000
vt 0.875000 0.500000
vt 0.625000 1.000000
vt 0.875000 0.750000
s 0
usemtl Material.012
f 34/51/22 35/52/22 33/53/22
f 36/54/23 39/55/23 35/52/23
f 40/56/24 37/57/24 39/55/24
f 38/58/25 33/59/25 37/57/25
f 36/60/26 38/58/26 40/56/26
f 34/51/22 36/54/22 35/52/22
f 36/54/23 40/56/23 39/55/23
f 40/56/24 38/58/24 37/57/24
f 38/58/25 34/61/25 33/59/25
f 36/60/26 34/62/26 38/58/26
o Cube.001
v 0.752548 0.006927 0.974459
v 0.752548 0.162989 0.974459
v 0.752548 0.006927 0.650766
v 0.752548 0.162989 0.650766
v 0.908609 0.006927 0.974459
v 0.908609 0.162989 0.974459
v 0.908609 0.006927 0.650766
v 0.908609 0.162989 0.650766
vn -1.0000 -0.0000 -0.0000
vn -0.0000 -0.0000 -1.0000
vn 1.0000 -0.0000 -0.0000
vn -0.0000 -0.0000 1.0000
vn -0.0000 1.0000 -0.0000
vt 0.625000 0.000000
vt 0.375000 0.250000
vt 0.375000 0.000000
vt 0.625000 0.250000
vt 0.375000 0.500000
vt 0.625000 0.500000
vt 0.375000 0.750000
vt 0.625000 0.750000
vt 0.375000 1.000000
vt 0.875000 0.500000
vt 0.625000 1.000000
vt 0.875000 0.750000
s 0
usemtl Material.012
f 42/63/27 43/64/27 41/65/27
f 44/66/28 47/67/28 43/64/28
f 48/68/29 45/69/29 47/67/29
f 46/70/30 41/71/30 45/69/30
f 44/72/31 46/70/31 48/68/31
f 42/63/27 44/66/27 43/64/27
f 44/66/28 48/68/28 47/67/28
f 48/68/29 46/70/29 45/69/29
f 46/70/30 42/73/30 41/71/30
f 44/72/31 42/74/31 46/70/31
o Cube.008
v 0.124876 0.006927 0.974459
v 0.124876 0.162989 0.974459
v 0.124876 0.006927 0.650766
v 0.124876 0.162989 0.650766
v 0.646782 0.006927 0.974459
v 0.646782 0.162989 0.974459
v 0.646782 0.006927 0.650766
v 0.646782 0.162989 0.650766
vn -1.0000 -0.0000 -0.0000
vn -0.0000 -0.0000 -1.0000
vn 1.0000 -0.0000 -0.0000
vn -0.0000 -0.0000 1.0000
vn -0.0000 1.0000 -0.0000
vt 0.625000 0.000000
vt 0.375000 0.250000
vt 0.375000 0.000000
vt 0.625000 0.250000
vt 0.375000 0.500000
vt 0.625000 0.500000
vt 0.375000 0.750000
vt 0.625000 0.750000
vt 0.375000 1.000000
vt 0.875000 0.500000
vt 0.625000 1.000000
vt 0.875000 0.750000
s 0
usemtl Material.012
f 50/75/32 51/76/32 49/77/32
f 52/78/33 55/79/33 51/76/33
f 56/80/34 53/81/34 55/79/34
f 54/82/35 49/83/35 53/81/35
f 52/84/36 54/82/36 56/80/36
f 50/75/32 52/78/32 51/76/32
f 52/78/33 56/80/33 55/79/33
f 56/80/34 54/82/34 53/81/34
f 54/82/35 50/85/35 49/83/35
f 52/84/36 50/86/36 54/82/36
o Cube.009
v -0.191273 0.006927 0.983240
v -0.191273 0.162989 0.983240
v -0.191273 0.006927 0.755815
v -0.191273 0.162989 0.755815
v 0.048590 0.006927 0.983240
v 0.048590 0.162989 0.983240
v 0.048590 0.006927 0.755815
v 0.048590 0.162989 0.755815
vn -1.0000 -0.0000 -0.0000
vn -0.0000 -0.0000 -1.0000
vn 1.0000 -0.0000 -0.0000
vn -0.0000 -0.0000 1.0000
vn -0.0000 1.0000 -0.0000
vt 0.625000 0.000000
vt 0.375000 0.250000
vt 0.375000 0.000000
vt 0.625000 0.250000
vt 0.375000 0.500000
vt 0.625000 0.500000
vt 0.375000 0.750000
vt 0.625000 0.750000
vt 0.375000 1.000000
vt 0.875000 0.500000
vt 0.625000 1.000000
vt 0.875000 0.750000
s 0
usemtl Material.012
f 58/87/37 59/88/37 57/89/37
f 60/90/38 63/91/38 59/88/38
f 64/92/39 61/93/39 63/91/39
f 62/94/40 57/95/40 61/93/40
f 60/96/41 62/94/41 64/92/41
f 58/87/37 60/90/37 59/88/37
f 60/90/38 64/92/38 63/91/38
f 64/92/39 62/94/39 61/93/39
f 62/94/40 58/97/40 57/95/40
f 60/96/41 58/98/41 62/94/41
o Cube.010
v 1.190888 0.006927 0.741830
v 1.190888 0.162989 0.741830
v 1.190888 0.006927 0.585768
v 1.190888 0.162989 0.585768
v 1.346950 0.006927 0.741830
v 1.346950 0.162989 0.741830
v 1.346950 0.006927 0.585768
v 1.346950 0.162989 0.585768
vn -1.0000 -0.0000 -0.0000
vn -0.0000 -0.0000 -1.0000
vn 1.0000 -0.0000 -0.0000
vn -0.0000 -0.0000 1.0000
vn -0.0000 1.0000 -0.0000
vt 0.625000 0.000000
vt 0.375000 0.250000
vt 0.375000 0.000000
vt 0.625000 0.250000
vt 0.375000 0.500000
vt 0.625000 0.500000
vt 0.375000 0.750000
vt 0.625000 0.750000
vt 0.375000 1.000000
vt 0.875000 0.500000
vt 0.625000 1.000000
vt 0.875000 0.750000
s 0
usemtl Material.015
f 66/99/42 67/100/42 65/101/42
f 68/102/43 71/103/43 67/100/43
f 72/104/44 69/105/44 71/103/44
f 70/106/45 65/107/45 69/105/45
f 68/108/46 70/106/46 72/104/46
f 66/99/42 68/102/42 67/100/42
f 68/102/43 72/104/43 71/103/43
f 72/104/44 70/106/44 69/105/44
f 70/106/45 66/109/45 65/107/45
f 68/108/46 66/110/46 70/106/46
o Cube.011
v 1.216121 0.133452 0.716597
v 1.216121 0.289514 0.716597
v 1.216121 0.133452 0.611001
v 1.216121 0.289514 0.611001
v 1.321717 0.133452 0.716597
v 1.321717 0.289514 0.716597
v 1.321717 0.133452 0.611001
v 1.321717 0.289514 0.611001
vn -1.0000 -0.0000 -0.0000
vn -0.0000 -0.0000 -1.0000
vn 1.0000 -0.0000 -0.0000
vn -0.0000 -0.0000 1.0000
vn -0.0000 1.0000 -0.0000
vt 0.625000 0.000000
vt 0.375000 0.250000
vt 0.375000 0.000000
vt 0.625000 0.250000
vt 0.375000 0.500000
vt 0.625000 0.500000
vt 0.375000 0.750000
vt 0.625000 0.750000
vt 0.375000 1.000000
vt 0.875000 0.500000
vt 0.625000 1.000000
vt 0.875000 0.750000
s 0
usemtl Material.016
f 74/111/47 75/112/47 73/113/47
f 76/114/48 79/115/48 75/112/48
f 80/116/49 77/117/49 79/115/49
f 78/118/50 73/119/50 77/117/50
f 76/120/51 78/118/51 80/116/51
f 74/111/47 76/114/47 75/112/47
f 76/114/48 80/116/48 79/115/48
f 80/116/49 78/118/49 77/117/49
f 78/118/50 74/121/50 73/119/50
f 76/120/51 74/122/51 78/118/51
o Cube.012
v 0.639724 0.019844 0.040448
v 0.639724 0.076953 0.040448
v 0.639724 0.019844 -0.313976
v 0.639724 0.076953 -0.313976
v 0.994148 0.019844 0.040448
v 0.994148 0.076953 0.040448
v 0.994148 0.019844 -0.313976
v 0.994148 0.076953 -0.313976
vn -1.0000 -0.0000 -0.0000
vn -0.0000 -0.0000 -1.0000
vn 1.0000 -0.0000 -0.0000
vn -0.0000 -0.0000 1.0000
vn -0.0000 1.0000 -0.0000
vt 0.625000 0.000000
vt 0.375000 0.250000
vt 0.375000 0.000000
vt 0.625000 0.250000
vt 0.375000 0.500000
vt 0.625000 0.500000
vt 0.375000 0.750000
vt 0.625000 0.750000
vt 0.375000 1.000000
vt 0.875000 0.500000
vt 0.625000 1.000000
vt 0.875000 0.750000
s 0
usemtl Material.007
f 82/123/52 83/124/52 81/125/52
f 84/126/53 87/127/53 83/124/53
f 88/128/54 85/129/54 87/127/54
f 86/130/55 81/131/55 85/129/55
f 84/132/56 86/130/56 88/128/56
f 82/123/52 84/126/52 83/124/52
f 84/126/53 88/128/53 87/127/53
f 88/128/54 86/130/54 85/129/54
f 86/130/55 82/133/55 81/131/55
f 84/132/56 82/134/56 86/130/56
o Cube.013
v -0.169108 0.019844 -0.324248
v -0.169108 0.076953 -0.324248
v -0.169108 0.019844 -0.578614
v -0.169108 0.076953 -0.578614
v 0.439393 0.019844 -0.324248
v 0.439393 0.076953 -0.324248
v 0.439393 0.019844 -0.578614
v 0.439393 0.076953 -0.578614
vn -1.0000 -0.0000 -0.0000
vn -0.0000 -0.0000 -1.0000
vn 1.0000 -0.0000 -0.0000
vn -0.0000 -0.0000 1.0000
vn -0.0000 1.0000 -0.0000
vt 0.625000 0.000000
vt 0.375000 0.250000
vt 0.375000 0.000000
vt 0.625000 0.250000
vt 0.375000 0.500000
vt 0.625000 0.500000
vt 0.375000 0.750000
vt 0.625000 0.750000
vt 0.375000 1.000000
vt 0.875000 0.500000
vt 0.625000 1.000000
vt 0.875000 0.750000
s 0
usemtl Material.007
f 90/135/57 91/136/57 89/137/57
f 92/138/58 95/139/58 91/136/58
f 96/140/59 93/141/59 95/139/59
f 94/142/60 89/143/60 93/141/60
f 92/144/61 94/142/61 96/140/61
f 90/135/57 92/138/57 91/136/57
f 92/138/58 96/140/58 95/139/58
f 96/140/59 94/142/59 93/141/59
f 94/142/60 90/145/60 89/143/60
f 92/144/61 90/146/61 94/142/61
o Cube
v -1.390188 -0.057606 1.000000
v -1.390188 0.026118 1.000000
v -1.390188 -0.057606 -1.000000
v -1.390188 0.026118 -1.000000
v 1.390188 -0.057606 1.000000
v 1.390188 0.026118 1.000000
v 1.390188 -0.057606 -1.000000
v 1.390188 0.026118 -1.000000
vn -1.0000 -0.0000 -0.0000
vn -0.0000 -0.0000 -1.0000
vn 1.0000 -0.0000 -0.0000
vn -0.0000 -0.0000 1.0000
vn -0.0000 -1.0000 -0.0000
vn -0.0000 1.0000 -0.0000
vt 0.625000 0.000000
vt 0.375000 0.250000
vt 0.375000 0.000000
vt 0.625000 0.250000
vt 0.375000 0.500000
vt 0.625000 0.500000
vt 0.375000 0.750000
vt 0.625000 0.750000
vt 0.375000 1.000000
vt 0.125000 0.750000
vt 0.125000 0.500000
vt 0.875000 0.500000
vt 0.625000 1.000000
vt 0.875000 0.750000
s 0
usemtl Material.018
f 98/147/62 99/148/62 97/149/62
f 100/150/63 103/151/63 99/148/63
f 104/152/64 101/153/64 103/151/64
f 102/154/65 97/155/65 101/153/65
f 103/151/66 97/156/66 99/157/66
f 100/158/67 102/154/67 104/152/67
f 98/147/62 100/150/62 99/148/62
f 100/150/63 104/152/63 103/151/63
f 104/152/64 102/154/64 101/153/64
f 102/154/65 98/159/65 97/155/65
f 103/151/66 101/153/66 97/156/66
f 100/158/67 98/160/67 102/154/67
o Cube.006
v 1.229815 -0.039753 0.949340
v 1.229815 0.292731 0.949340
v 1.229815 -0.039753 0.864476
v 1.229815 0.292731 0.864476
v 1.314680 -0.039753 0.949340
v 1.314680 0.292731 0.949340
v 1.314680 -0.039753 0.864476
v 1.314680 0.292731 0.864476
vn -1.0000 -0.0000 -0.0000
vn -0.0000 -0.0000 -1.0000
vn 1.0000 -0.0000 -0.0000
vn -0.0000 -0.0000 1.0000
vn -0.0000 1.0000 -0.0000
vt 0.625000 0.000000
vt 0.375000 0.250000
vt 0.375000 0.000000
vt 0.625000 0.250000
vt 0.375000 0.500000
vt 0.625000 0.500000
vt 0.375000 0.750000
vt 0.625000 0.750000
vt 0.375000 1.000000
vt 0.875000 0.500000
vt 0.625000 1.000000
vt 0.875000 0.750000
s 0
usemtl Material.019
f 106/161/68 107/162/68 105/163/68
f 108/164/69 111/165/69 107/162/69
f 112/166/70 109/167/70 111/165/70
f 110/168/71 105/169/71 109/167/71
f 108/170/72 110/168/72 112/166/72
f 106/161/68 108/164/68 107/162/68
f 108/164/69 112/166/69 111/165/69
f 112/166/70 110/168/70 109/167/70
f 110/168/71 106/171/71 105/169/71
f 108/170/72 106/172/72 110/168/72
o Cube.014
v 1.229815 -0.039753 -0.869603
v 1.229815 0.292731 -0.869603
v 1.229815 -0.039753 -0.954467
v 1.229815 0.292731 -0.954467
v 1.314680 -0.039753 -0.869603
v 1.314680 0.292731 -0.869603
v 1.314680 -0.039753 -0.954467
v 1.314680 0.292731 -0.954467
vn -1.0000 -0.0000 -0.0000
vn -0.0000 -0.0000 -1.0000
vn 1.0000 -0.0000 -0.0000
vn -0.0000 -0.0000 1.0000
vn -0.0000 1.0000 -0.0000
vt 0.625000 0.000000
vt 0.375000 0.250000
vt 0.375000 0.000000
vt 0.625000 0.250000
vt 0.375000 0.500000
vt 0.625000 0.500000
vt 0.375000 0.750000
vt 0.625000 0.750000
vt 0.375000 1.000000
vt 0.875000 0.500000
vt 0.625000 1.000000
vt 0.875000 0.750000
s 0
usemtl Material.019
f 114/173/73 115/174/73 113/175/73
f 116/176/74 119/177/74 115/174/74
f 120/178/75 117/179/75 119/177/75
f 118/180/76 113/181/76 117/179/76
f 116/182/77 118/180/77 120/178/77
f 114/173/73 116/176/73 115/174/73
f 116/176/74 120/178/74 119/177/74
f 120/178/75 118/180/75 117/179/75
f 118/180/76 114/183/76 113/181/76
f 116/182/77 114/184/77 118/180/77
o Cube.015
v -1.337716 -0.039753 -0.869603
v -1.337716 0.292731 -0.869603
v -1.337716 -0.039753 -0.954467
v -1.337716 0.292731 -0.954467
v -1.252852 -0.039753 -0.869603
v -1.252852 0.292731 -0.869603
v -1.252852 -0.039753 -0.954467
v -1.252852 0.292731 -0.954467
vn -1.0000 -0.0000 -0.0000
vn -0.0000 -0.0000 -1.0000
vn 1.0000 -0.0000 -0.0000
vn -0.0000 -0.0000 1.0000
vn -0.0000 1.0000 -0.0000
vt 0.625000 0.000000
vt 0.375000 0.250000
vt 0.375000 0.000000
vt 0.625000 0.250000
vt 0.375000 0.500000
vt 0.625000 0.500000
vt 0.375000 0.750000
vt 0.625000 0.750000
vt 0.375000 1.000000
vt 0.875000 0.500000
vt 0.625000 1.000000
vt 0.875000 0.750000
s 0
usemtl Material.019
f 122/185/78 123/186/78 121/187/78
f 124/188/79 127/189/79 123/186/79
f 128/190/80 125/191/80 127/189/80
f 126/192/81 121/193/81 125/191/81
f 124/194/82 126/192/82 128/190/82
f 122/185/78 124/188/78 123/186/78
f 124/188/79 128/190/79 127/189/79
f 128/190/80 126/192/80 125/191/80
f 126/192/81 122/195/81 121/193/81
f 124/194/82 122/196/82 126/192/82
o Cube.016
v -1.337716 -0.039753 0.966267
v -1.337716 0.292731 0.966267
v -1.337716 -0.039753 0.881402
v -1.337716 0.292731 0.881402
v -1.252852 -0.039753 0.966267
v -1.252852 0.292731 0.966267
v -1.252852 -0.039753 0.881402
v -1.252852 0.292731 0.881402
vn -1.0000 -0.0000 -0.0000
vn -0.0000 -0.0000 -1.0000
vn 1.0000 -0.0000 -0.0000
vn -0.0000 -0.0000 1.0000
vn -0.0000 1.0000 -0.0000
vt 0.625000 0.000000
vt 0.375000 0.250000
vt 0.375000 0.000000
vt 0.625000 0.250000
vt 0.375000 0.500000
vt 0.625000 0.500000
vt 0.375000 0.750000
vt 0.625000 0.750000
vt 0.375000 1.000000
vt 0.875000 0.500000
vt 0.625000 1.000000
vt 0.875000 0.750000
s 0
usemtl Material.019
f 130/197/83 131/198/83 129/199/83
f 132/200/84 135/201/84 131/198/84
f 136/202/85 133/203/85 135/201/85
f 134/204/86 129/205/86 133/203/86
f 132/206/87 134/204/87 136/202/87
f 130/197/83 132/200/83 131/198/83
f 132/200/84 136/202/84 135/201/84
f 136/202/85 134/204/85 133/203/85
f 134/204/86 130/207/86 129/205/86
f 132/206/87 130/208/87 134/204/87
