# Blender 5.2.1 LTS
# www.blender.org
mtllib RV32IMModel.mtl
o Text
v 0.640893 -0.000000 0.090000
v 0.640893 0.007000 0.090000
v 0.877892 0.321000 0.090000
v 0.925892 0.467000 0.090000
v 0.808892 0.595000 0.090000
v 0.654892 0.503000 0.090000
v 0.654892 0.626000 0.090000
v 0.815892 0.691000 0.090000
v 1.023892 0.478000 0.090000
v 0.811893 0.093000 0.090000
v 1.072892 0.093000 0.090000
v 1.072892 -0.000000 0.090000
v 0.318892 0.691000 0.090000
v 0.519892 0.513000 0.090000
v 0.432892 0.360000 0.090000
v 0.530892 0.198000 0.090000
v 0.315892 -0.009000 0.090000
v 0.170892 0.030000 0.090000
v 0.170892 0.136000 0.090000
v 0.322892 0.084000 0.090000
v 0.432892 0.193000 0.090000
v 0.286892 0.307000 0.090000
v 0.286892 0.397000 0.090000
v 0.421893 0.496000 0.090000
v 0.303892 0.598000 0.090000
v 0.187892 0.569000 0.090000
v 0.187892 0.662000 0.090000
v -0.202108 -0.006000 0.090000
v -0.497108 0.682000 0.090000
v -0.399108 0.682000 0.090000
v -0.194108 0.203000 0.090000
v 0.009892 0.682000 0.090000
v 0.106892 0.682000 0.090000
v -0.182108 -0.006000 0.090000
v -0.628108 0.491000 0.090000
v -0.742108 0.324000 0.090000
v -0.590108 0.135000 0.090000
v -0.497108 -0.000000 0.090000
v -0.614108 -0.000000 0.090000
v -0.704108 0.140000 0.090000
v -0.885108 0.296000 0.090000
v -0.926108 0.296000 0.090000
v -0.926108 -0.000000 0.090000
v -1.024108 -0.000000 0.090000
v -1.024108 0.682000 0.090000
v -0.852108 0.682000 0.090000
v -0.863108 0.384000 0.090000
v -0.729108 0.495000 0.090000
v -0.863108 0.598000 0.090000
v -0.926108 0.598000 0.090000
v -0.926108 0.384000 0.090000
v 0.640893 0.000000 -0.090000
v 0.640893 0.007000 -0.090000
v 0.877892 0.321000 -0.090000
v 0.925892 0.467000 -0.090000
v 0.808892 0.595000 -0.090000
v 0.654892 0.503000 -0.090000
v 0.654892 0.626000 -0.090000
v 0.815892 0.691000 -0.090000
v 1.023892 0.478000 -0.090000
v 0.811893 0.093000 -0.090000
v 1.072892 0.093000 -0.090000
v 1.072892 0.000000 -0.090000
v 0.318892 0.691000 -0.090000
v 0.519892 0.513000 -0.090000
v 0.432892 0.360000 -0.090000
v 0.530892 0.198000 -0.090000
v 0.315892 -0.009000 -0.090000
v 0.170892 0.030000 -0.090000
v 0.170892 0.136000 -0.090000
v 0.322892 0.084000 -0.090000
v 0.432892 0.193000 -0.090000
v 0.286892 0.307000 -0.090000
v 0.286892 0.397000 -0.090000
v 0.421893 0.496000 -0.090000
v 0.303892 0.598000 -0.090000
v 0.187892 0.569000 -0.090000
v 0.187892 0.662000 -0.090000
v -0.202108 -0.006000 -0.090000
v -0.497108 0.682000 -0.090000
v -0.399108 0.682000 -0.090000
v -0.194108 0.203000 -0.090000
v 0.009892 0.682000 -0.090000
v 0.106892 0.682000 -0.090000
v -0.182108 -0.006000 -0.090000
v -0.628108 0.491000 -0.090000
v -0.742108 0.324000 -0.090000
v -0.590108 0.135000 -0.090000
v -0.497108 0.000000 -0.090000
v -0.614108 0.000000 -0.090000
v -0.704108 0.140000 -0.090000
v -0.885108 0.296000 -0.090000
v -0.926108 0.296000 -0.090000
v -0.926108 0.000000 -0.090000
v -1.024108 0.000000 -0.090000
v -1.024108 0.682000 -0.090000
v -0.852108 0.682000 -0.090000
v -0.863108 0.384000 -0.090000
v -0.729108 0.495000 -0.090000
v -0.863108 0.598000 -0.090000
v -0.926108 0.598000 -0.090000
v -0.926108 0.384000 -0.090000
v -0.628108 0.491000 -0.090000
v -0.628108 0.491000 0.090000
v -0.742108 0.324000 -0.090000
v -0.742108 0.324000 0.090000
v -0.590108 0.135000 -0.090000
v -0.590108 0.135000 0.090000
v -0.497108 0.000000 -0.090000
v -0.497108 -0.000000 0.090000
v -0.614108 0.000000 -0.090000
v -0.614108 -0.000000 0.090000
v -0.704108 0.140000 -0.090000
v -0.704108 0.140000 0.090000
v -0.885108 0.296000 -0.090000
v -0.885108 0.296000 0.090000
v -0.926108 0.296000 -0.090000
v -0.926108 0.296000 0.090000
v -0.926108 0.000000 -0.090000
v -0.926108 -0.000000 0.090000
v -1.024108 0.000000 -0.090000
v -1.024108 -0.000000 0.090000
v -1.024108 0.682000 -0.090000
v -1.024108 0.682000 0.090000
v -0.852108 0.682000 -0.090000
v -0.852108 0.682000 0.090000
v -0.863108 0.384000 -0.090000
v -0.863108 0.384000 0.090000
v -0.729108 0.495000 -0.090000
v -0.729108 0.495000 0.090000
v -0.863108 0.598000 -0.090000
v -0.863108 0.598000 0.090000
v -0.926108 0.598000 -0.090000
v -0.926108 0.598000 0.090000
v -0.926108 0.384000 -0.090000
v -0.926108 0.384000 0.090000
v -0.202108 -0.006000 -0.090000
v -0.202108 -0.006000 0.090000
v -0.497108 0.682000 -0.090000
v -0.497108 0.682000 0.090000
v -0.399108 0.682000 -0.090000
v -0.399108 0.682000 0.090000
v -0.194108 0.203000 -0.090000
v -0.194108 0.203000 0.090000
v 0.009892 0.682000 -0.090000
v 0.009892 0.682000 0.090000
v 0.106892 0.682000 -0.090000
v 0.106892 0.682000 0.090000
v -0.182108 -0.006000 -0.090000
v -0.182108 -0.006000 0.090000
v 0.318892 0.691000 -0.090000
v 0.318892 0.691000 0.090000
v 0.519892 0.513000 -0.090000
v 0.519892 0.513000 0.090000
v 0.432892 0.360000 -0.090000
v 0.432892 0.360000 0.090000
v 0.530892 0.198000 -0.090000
v 0.530892 0.198000 0.090000
v 0.315892 -0.009000 -0.090000
v 0.315892 -0.009000 0.090000
v 0.170892 0.030000 -0.090000
v 0.170892 0.030000 0.090000
v 0.170892 0.136000 -0.090000
v 0.170892 0.136000 0.090000
v 0.322892 0.084000 -0.090000
v 0.322892 0.084000 0.090000
v 0.432892 0.193000 -0.090000
v 0.432892 0.193000 0.090000
v 0.286892 0.307000 -0.090000
v 0.286892 0.307000 0.090000
v 0.286892 0.397000 -0.090000
v 0.286892 0.397000 0.090000
v 0.421893 0.496000 -0.090000
v 0.421893 0.496000 0.090000
v 0.303892 0.598000 -0.090000
v 0.303892 0.598000 0.090000
v 0.187892 0.569000 -0.090000
v 0.187892 0.569000 0.090000
v 0.187892 0.662000 -0.090000
v 0.187892 0.662000 0.090000
v 0.640893 0.000000 -0.090000
v 0.640893 -0.000000 0.090000
v 0.640893 0.007000 -0.090000
v 0.640893 0.007000 0.090000
v 0.877892 0.321000 -0.090000
v 0.877892 0.321000 0.090000
v 0.925892 0.467000 -0.090000
v 0.925892 0.467000 0.090000
v 0.808892 0.595000 -0.090000
v 0.808892 0.595000 0.090000
v 0.654892 0.503000 -0.090000
v 0.654892 0.503000 0.090000
v 0.654892 0.626000 -0.090000
v 0.654892 0.626000 0.090000
v 0.815892 0.691000 -0.090000
v 0.815892 0.691000 0.090000
v 1.023892 0.478000 -0.090000
v 1.023892 0.478000 0.090000
v 0.811893 0.093000 -0.090000
v 0.811893 0.093000 0.090000
v 1.072892 0.093000 -0.090000
v 1.072892 0.093000 0.090000
v 1.072892 0.000000 -0.090000
v 1.072892 -0.000000 0.090000
vn -0.0000 -0.0000 1.0000
vn -0.0000 -0.0000 -1.0000
vn 0.9992 0.0391 -0.0000
vn 0.9912 0.1325 -0.0000
vn 0.8019 0.5974 -0.0000
vn 0.9992 0.0392 -0.0000
vn 0.8853 -0.4651 -0.0000
vn -0.4792 -0.8777 -0.0000
vn 0.8852 -0.4651 -0.0000
vn -0.7548 -0.6559 -0.0000
vn -0.3482 -0.9374 -0.0000
vn 0.7071 -0.7071 -0.0000
vn -0.7071 -0.7071 -0.0000
vn -0.7071 0.7071 -0.0000
vn 0.3457 0.9383 -0.0000
vn -0.9998 -0.0182 -0.0000
vn -0.3391 0.9408 -0.0000
vn -0.3218 -0.9468 -0.0000
vn -0.9998 -0.0183 -0.0000
vn 0.7071 0.7071 -0.0000
vn -0.8349 0.5504 -0.0000
vn -0.5504 -0.8349 -0.0000
vn 0.5507 0.8347 -0.0000
vn -0.0009 1.0000 -0.0000
vn -0.5514 0.8342 -0.0000
vn -0.0008 1.0000 -0.0000
vn 0.8329 0.5535 -0.0000
vn 0.5535 -0.8329 -0.0000
vn 0.8328 0.5535 -0.0000
vn 0.9865 0.1638 -0.0000
vn 0.2508 0.9680 -0.0000
vn 0.2508 0.9681 -0.0000
vn 0.9999 0.0135 -0.0000
vn 0.9865 0.1637 -0.0000
vn 0.9915 -0.1298 -0.0000
vn 0.2492 -0.9685 -0.0000
vn -0.7936 -0.6084 -0.0000
vn -0.5815 0.8135 -0.0000
vn -0.2237 0.9747 -0.0000
vn -0.5815 0.8136 -0.0000
vn -0.9983 -0.0589 -0.0000
vn -0.8987 -0.4385 -0.0000
vn -0.8920 0.4520 -0.0000
vn -0.9992 0.0400 -0.0000
vn -0.2318 -0.9728 -0.0000
vn -0.6154 -0.7882 -0.0000
vn -0.7798 0.6261 -0.0000
vn -0.9482 0.3177 -0.0000
vn -0.8860 0.4636 -0.0000
vn -0.9777 -0.2099 -0.0000
vn -0.1454 -0.9894 -0.0000
vn -0.4935 -0.8698 -0.0000
vn -0.1453 -0.9894 -0.0000
vn -0.8290 0.5593 -0.0000
vn -0.4935 -0.8697 -0.0000
vn 0.2053 0.9787 -0.0000
vn 0.9909 0.1347 -0.0000
vn 0.8609 0.5088 -0.0000
vt 0.090909 0.000000
vt 0.000000 0.000000
vt 0.818182 0.000000
vt 0.363636 0.000000
vt 0.545455 0.000000
vt 0.454545 0.000000
vt 0.272727 0.000000
vt 0.181818 0.000000
vt 0.727273 0.000000
vt 1.000000 0.000000
vt 0.909091 0.000000
vt 0.636364 0.000000
vt 0.857143 0.000000
vt 0.928571 0.000000
vt 0.142857 0.000000
vt 0.571429 0.000000
vt 0.214286 0.000000
vt 0.500000 0.000000
vt 0.285714 0.000000
vt 0.071429 0.000000
vt 0.785714 0.000000
vt 0.357143 0.000000
vt 0.428571 0.000000
vt 0.642857 0.000000
vt 0.714286 0.000000
vt 0.833333 0.000000
vt 0.666667 0.000000
vt 0.166667 0.000000
vt 0.333333 0.000000
vt 0.437500 0.000000
vt 0.562500 0.000000
vt 0.375000 0.000000
vt 0.750000 0.000000
vt 0.625000 0.000000
vt 0.937500 0.000000
vt 0.687500 0.000000
vt 0.875000 0.000000
vt 0.812500 0.000000
vt 0.125000 0.000000
vt 0.250000 0.000000
vt 0.187500 0.000000
vt 0.312500 0.000000
vt 0.062500 0.000000
vt 0.083333 1.000000
vt 0.000000 1.000000
vt 0.166667 1.000000
vt 0.083333 0.000000
vt 0.250000 1.000000
vt 0.333333 1.000000
vt 0.416667 1.000000
vt 0.500000 1.000000
vt 0.416667 0.000000
vt 0.583333 1.000000
vt 0.666667 1.000000
vt 0.583333 0.000000
vt 0.750000 1.000000
vt 0.833333 1.000000
vt 0.916667 1.000000
vt 1.000000 1.000000
vt 0.916667 0.000000
vt 0.200000 1.000000
vt 0.400000 1.000000
vt 0.200000 0.000000
vt 0.600000 1.000000
vt 0.400000 0.000000
vt 0.800000 1.000000
vt 0.600000 0.000000
vt 0.800000 0.000000
vt 0.142857 1.000000
vt 0.285714 1.000000
vt 0.428571 1.000000
vt 0.571429 1.000000
vt 0.714286 1.000000
vt 0.857143 1.000000
vt 0.066667 1.000000
vt 0.133333 1.000000
vt 0.066667 0.000000
vt 0.133333 0.000000
vt 0.266667 1.000000
vt 0.266667 0.000000
vt 0.466667 1.000000
vt 0.533333 1.000000
vt 0.466667 0.000000
vt 0.533333 0.000000
vt 0.733333 1.000000
vt 0.733333 0.000000
vt 0.866667 1.000000
vt 0.933333 1.000000
vt 0.866667 0.000000
vt 0.933333 0.000000
s 0
usemtl Material.004
f 31/18/1 34/10/1 33/26/1
f 33/26/1 32/27/1 31/18/1
f 34/10/1 31/18/1 28/2/1
f 29/28/1 28/2/1 31/18/1
f 30/29/1 29/28/1 31/18/1
f 43/18/1 42/30/1 44/31/1
f 41/32/1 47/33/1 51/10/1
f 41/32/1 51/10/1 42/30/1
f 44/31/1 42/30/1 51/10/1
f 45/34/1 44/31/1 51/10/1
f 51/10/1 50/35/1 45/34/1
f 46/36/1 49/37/1 48/38/1
f 37/39/1 39/40/1 38/41/1
f 39/40/1 37/39/1 40/42/1
f 40/42/1 37/39/1 36/43/1
f 48/38/1 36/43/1 35/2/1
f 46/36/1 48/38/1 35/2/1
f 40/42/1 36/43/1 41/32/1
f 47/33/1 41/32/1 36/43/1
f 36/43/1 48/38/1 47/33/1
f 49/37/1 46/36/1 50/35/1
f 45/34/1 50/35/1 46/36/1
s 1
usemtl Material.005
f 106/44/3 103/2/4 104/45/4
f 108/46/5 105/47/6 106/44/3
f 110/48/7 107/28/5 108/46/5
f 112/49/8 109/40/9 110/48/7
f 114/50/10 111/29/8 112/49/8
f 116/51/11 113/52/10 114/50/10
f 118/53/12 115/18/11 116/51/11
f 120/54/12 117/55/12 118/53/12
f 122/56/13 119/27/12 120/54/12
f 124/57/14 121/33/13 122/56/13
f 126/58/15 123/26/14 124/57/14
f 104/59/4 125/60/15 126/58/15
f 130/61/16 127/2/17 128/45/17
f 132/62/18 129/63/19 130/61/16
f 134/64/12 131/65/18 132/62/18
f 136/66/20 133/67/12 134/64/12
f 128/59/17 135/68/20 136/66/20
f 140/69/21 137/2/22 138/45/22
f 142/70/23 139/15/21 140/69/21
f 144/71/24 141/19/23 142/70/23
f 146/72/25 143/23/26 144/71/24
f 148/73/27 145/16/25 146/72/25
f 150/74/28 147/25/29 148/73/27
f 138/59/22 149/13/28 150/74/28
f 106/44/3 105/47/6 103/2/4
f 108/46/5 107/28/5 105/47/6
f 110/48/7 109/40/9 107/28/5
f 112/49/8 111/29/8 109/40/9
f 114/50/10 113/52/10 111/29/8
f 116/51/11 115/18/11 113/52/10
f 118/53/12 117/55/12 115/18/11
f 120/54/12 119/27/12 117/55/12
f 122/56/13 121/33/13 119/27/12
f 124/57/14 123/26/14 121/33/13
f 126/58/15 125/60/15 123/26/14
f 104/59/4 103/10/4 125/60/15
f 130/61/16 129/63/19 127/2/17
f 132/62/18 131/65/18 129/63/19
f 134/64/12 133/67/12 131/65/18
f 136/66/20 135/68/20 133/67/12
f 128/59/17 127/10/17 135/68/20
f 140/69/21 139/15/21 137/2/22
f 142/70/23 141/19/23 139/15/21
f 144/71/24 143/23/26 141/19/23
f 146/72/25 145/16/25 143/23/26
f 148/73/27 147/25/29 145/16/25
f 150/74/28 149/13/28 147/25/29
f 138/59/22 137/10/22 149/13/28
s 0
usemtl Material.006
f 82/18/2 84/26/2 85/10/2
f 84/26/2 82/18/2 83/27/2
f 85/10/2 79/2/2 82/18/2
f 80/28/2 82/18/2 79/2/2
f 81/29/2 82/18/2 80/28/2
f 94/18/2 95/31/2 93/30/2
f 92/32/2 102/10/2 98/33/2
f 92/32/2 93/30/2 102/10/2
f 95/31/2 102/10/2 93/30/2
f 96/34/2 102/10/2 95/31/2
f 102/10/2 96/34/2 101/35/2
f 97/36/2 99/38/2 100/37/2
f 88/39/2 89/41/2 90/40/2
f 90/40/2 91/42/2 88/39/2
f 91/42/2 87/43/2 88/39/2
f 99/38/2 86/2/2 87/43/2
f 97/36/2 86/2/2 99/38/2
f 91/42/2 92/32/2 87/43/2
f 98/33/2 87/43/2 92/32/2
f 87/43/2 98/33/2 99/38/2
f 100/37/2 101/35/2 97/36/2
f 96/34/2 97/36/2 101/35/2
usemtl Material.007
f 2/1/1 1/2/1 10/3/1
f 5/4/1 7/5/1 6/6/1
f 4/7/1 3/8/1 9/9/1
f 10/3/1 1/2/1 12/10/1
f 12/10/1 11/11/1 10/3/1
f 4/7/1 9/9/1 5/4/1
f 9/9/1 8/12/1 5/4/1
f 7/5/1 5/4/1 8/12/1
f 9/9/1 3/8/1 10/3/1
f 2/1/1 10/3/1 3/8/1
f 25/13/1 27/10/1 26/14/1
f 15/15/1 21/16/1 16/17/1
f 20/18/1 17/19/1 16/17/1
f 16/17/1 21/16/1 20/18/1
f 15/15/1 14/20/1 24/21/1
f 13/2/1 24/21/1 14/20/1
f 17/19/1 20/18/1 18/22/1
f 19/23/1 18/22/1 20/18/1
f 21/16/1 15/15/1 22/24/1
f 23/25/1 22/24/1 15/15/1
f 15/15/1 24/21/1 23/25/1
f 24/21/1 13/2/1 25/13/1
f 27/10/1 25/13/1 13/2/1
s 1
usemtl Material.008
f 154/75/30 151/2/31 152/45/32
f 156/76/33 153/77/34 154/75/30
f 158/61/35 155/78/33 156/76/33
f 160/79/36 157/63/35 158/61/35
f 162/49/37 159/80/36 160/79/36
f 164/62/38 161/29/37 162/49/37
f 166/81/39 163/65/40 164/62/38
f 168/82/41 165/83/39 166/81/39
f 170/64/42 167/84/41 168/82/41
f 172/54/43 169/67/42 170/64/42
f 174/85/44 171/27/43 172/54/43
f 176/66/45 173/86/44 174/85/44
f 178/87/46 175/68/45 176/66/45
f 180/88/47 177/89/46 178/87/46
f 152/59/32 179/90/47 180/88/47
f 184/44/48 181/2/13 182/45/13
f 188/48/50 185/28/49 186/46/49
f 190/49/51 187/40/50 188/48/50
f 192/50/52 189/29/53 190/49/51
f 194/51/54 191/52/55 192/50/52
f 196/53/56 193/18/54 194/51/54
f 198/54/57 195/55/56 196/53/56
f 200/56/58 197/27/57 198/54/57
f 202/57/20 199/33/58 200/56/58
f 204/58/12 201/26/20 202/57/20
f 182/59/13 203/60/12 204/58/12
f 154/75/30 153/77/34 151/2/31
f 156/76/33 155/78/33 153/77/34
f 158/61/35 157/63/35 155/78/33
f 160/79/36 159/80/36 157/63/35
f 162/49/37 161/29/37 159/80/36
f 164/62/38 163/65/40 161/29/37
f 166/81/39 165/83/39 163/65/40
f 168/82/41 167/84/41 165/83/39
f 170/64/42 169/67/42 167/84/41
f 172/54/43 171/27/43 169/67/42
f 174/85/44 173/86/44 171/27/43
f 176/66/45 175/68/45 173/86/44
f 178/87/46 177/89/46 175/68/45
f 180/88/47 179/90/47 177/89/46
f 152/59/32 151/10/31 179/90/47
f 184/44/48 183/47/48 181/2/13
f 188/48/50 187/40/50 185/28/49
f 190/49/51 189/29/53 187/40/50
f 192/50/52 191/52/55 189/29/53
f 194/51/54 193/18/54 191/52/55
f 196/53/56 195/55/56 193/18/54
f 198/54/57 197/27/57 195/55/56
f 200/56/58 199/33/58 197/27/57
f 202/57/20 201/26/20 199/33/58
f 204/58/12 203/60/12 201/26/20
f 182/59/13 181/10/13 203/60/12
s 0
usemtl Material.009
f 53/1/2 61/3/2 52/2/2
f 56/4/2 57/6/2 58/5/2
f 55/7/2 60/9/2 54/8/2
f 61/3/2 63/10/2 52/2/2
f 63/10/2 61/3/2 62/11/2
f 55/7/2 56/4/2 60/9/2
f 60/9/2 56/4/2 59/12/2
f 58/5/2 59/12/2 56/4/2
f 60/9/2 61/3/2 54/8/2
f 53/1/2 54/8/2 61/3/2
f 76/13/2 77/14/2 78/10/2
f 66/15/2 67/17/2 72/16/2
f 71/18/2 67/17/2 68/19/2
f 67/17/2 71/18/2 72/16/2
f 66/15/2 75/21/2 65/20/2
f 64/2/2 65/20/2 75/21/2
f 68/19/2 69/22/2 71/18/2
f 70/23/2 71/18/2 69/22/2
f 72/16/2 73/24/2 66/15/2
f 74/25/2 66/15/2 73/24/2
f 66/15/2 74/25/2 75/21/2
f 75/21/2 76/13/2 64/2/2
f 78/10/2 64/2/2 76/13/2
s 1
f 186/46/49 183/47/48 184/44/48
f 186/46/49 185/28/49 183/47/48
