# Blender 5.1.0
# www.blender.org
mtllib TeamName.mtl
o Text
v 0.797901 -0.009000 0.100000
v 0.513901 0.258000 0.100000
v 0.513901 0.682000 0.100000
v 0.611901 0.682000 0.100000
v 0.611901 0.279000 0.100000
v 0.652901 0.139000 0.100000
v 0.799901 0.081000 0.100000
v 0.959901 0.136000 0.100000
v 1.002901 0.285000 0.100000
v 1.002901 0.682000 0.100000
v 1.100901 0.682000 0.100000
v 1.100901 0.268000 0.100000
v 0.961115 0.140210 0.100000
v 0.954468 0.134133 0.100000
v 0.233901 0.603000 0.100000
v 0.125901 0.522000 0.100000
v 0.420901 0.176000 0.100000
v 0.229901 -0.009000 0.100000
v 0.038901 0.054000 0.100000
v 0.038901 0.178000 0.100000
v 0.218901 0.079000 0.100000
v 0.329901 0.165000 0.100000
v 0.034901 0.509000 0.100000
v 0.241901 0.691000 0.100000
v 0.393901 0.643000 0.100000
v 0.393901 0.532000 0.100000
v -0.179099 -0.000000 0.100000
v -0.179099 0.682000 0.100000
v -0.081099 0.682000 0.100000
v -0.081099 -0.000000 0.100000
v -0.425099 -0.000000 0.100000
v -0.425099 0.531000 0.100000
v -0.427099 0.531000 0.100000
v -0.637099 0.267000 0.100000
v -0.653099 0.267000 0.100000
v -0.863099 0.531000 0.100000
v -0.865099 0.531000 0.100000
v -0.865099 -0.000000 0.100000
v -0.963099 -0.000000 0.100000
v -0.963099 0.682000 0.100000
v -0.871099 0.682000 0.100000
v -0.645099 0.402000 0.100000
v -0.418099 0.682000 0.100000
v -0.327099 0.682000 0.100000
v -0.327099 -0.000000 0.100000
v 0.797901 -0.009000 -0.100000
v 0.513901 0.258000 -0.100000
v 0.513901 0.682000 -0.100000
v 0.611901 0.682000 -0.100000
v 0.611901 0.279000 -0.100000
v 0.652901 0.139000 -0.100000
v 0.799901 0.081000 -0.100000
v 0.959901 0.136000 -0.100000
v 1.002901 0.285000 -0.100000
v 1.002901 0.682000 -0.100000
v 1.100901 0.682000 -0.100000
v 1.100901 0.268000 -0.100000
v 0.961115 0.140210 -0.100000
v 0.954468 0.134133 -0.100000
v 0.233901 0.603000 -0.100000
v 0.125901 0.522000 -0.100000
v 0.420901 0.176000 -0.100000
v 0.229901 -0.009000 -0.100000
v 0.038901 0.054000 -0.100000
v 0.038901 0.178000 -0.100000
v 0.218901 0.079000 -0.100000
v 0.329901 0.165000 -0.100000
v 0.034901 0.509000 -0.100000
v 0.241901 0.691000 -0.100000
v 0.393901 0.643000 -0.100000
v 0.393901 0.532000 -0.100000
v -0.179099 0.000000 -0.100000
v -0.179099 0.682000 -0.100000
v -0.081099 0.682000 -0.100000
v -0.081099 0.000000 -0.100000
v -0.425099 0.000000 -0.100000
v -0.425099 0.531000 -0.100000
v -0.427099 0.531000 -0.100000
v -0.637099 0.267000 -0.100000
v -0.653099 0.267000 -0.100000
v -0.863099 0.531000 -0.100000
v -0.865099 0.531000 -0.100000
v -0.865099 0.000000 -0.100000
v -0.963099 0.000000 -0.100000
v -0.963099 0.682000 -0.100000
v -0.871099 0.682000 -0.100000
v -0.645099 0.402000 -0.100000
v -0.418099 0.682000 -0.100000
v -0.327099 0.682000 -0.100000
v -0.327099 0.000000 -0.100000
v -0.425099 0.000000 -0.100000
v -0.425099 -0.000000 0.100000
v -0.425099 0.531000 -0.100000
v -0.425099 0.531000 0.100000
v -0.427099 0.531000 -0.100000
v -0.427099 0.531000 0.100000
v -0.637099 0.267000 -0.100000
v -0.637099 0.267000 0.100000
v -0.653099 0.267000 -0.100000
v -0.653099 0.267000 0.100000
v -0.863099 0.531000 -0.100000
v -0.863099 0.531000 0.100000
v -0.865099 0.531000 -0.100000
v -0.865099 0.531000 0.100000
v -0.865099 0.000000 -0.100000
v -0.865099 -0.000000 0.100000
v -0.963099 0.000000 -0.100000
v -0.963099 -0.000000 0.100000
v -0.963099 0.682000 -0.100000
v -0.963099 0.682000 0.100000
v -0.871099 0.682000 -0.100000
v -0.871099 0.682000 0.100000
v -0.645099 0.402000 -0.100000
v -0.645099 0.402000 0.100000
v -0.418099 0.682000 -0.100000
v -0.418099 0.682000 0.100000
v -0.327099 0.682000 -0.100000
v -0.327099 0.682000 0.100000
v -0.327099 0.000000 -0.100000
v -0.327099 -0.000000 0.100000
v -0.179099 0.000000 -0.100000
v -0.179099 -0.000000 0.100000
v -0.179099 0.682000 -0.100000
v -0.179099 0.682000 0.100000
v -0.081099 0.682000 -0.100000
v -0.081099 0.682000 0.100000
v -0.081099 0.000000 -0.100000
v -0.081099 -0.000000 0.100000
v 0.233901 0.603000 -0.100000
v 0.233901 0.603000 0.100000
v 0.125901 0.522000 -0.100000
v 0.125901 0.522000 0.100000
v 0.420901 0.176000 -0.100000
v 0.420901 0.176000 0.100000
v 0.229901 -0.009000 -0.100000
v 0.229901 -0.009000 0.100000
v 0.038901 0.054000 -0.100000
v 0.038901 0.054000 0.100000
v 0.038901 0.178000 -0.100000
v 0.038901 0.178000 0.100000
v 0.218901 0.079000 -0.100000
v 0.218901 0.079000 0.100000
v 0.329901 0.165000 -0.100000
v 0.329901 0.165000 0.100000
v 0.034901 0.509000 -0.100000
v 0.034901 0.509000 0.100000
v 0.241901 0.691000 -0.100000
v 0.241901 0.691000 0.100000
v 0.393901 0.643000 -0.100000
v 0.393901 0.643000 0.100000
v 0.393901 0.532000 -0.100000
v 0.393901 0.532000 0.100000
v 0.797901 -0.009000 -0.100000
v 0.797901 -0.009000 0.100000
v 0.513901 0.258000 -0.100000
v 0.513901 0.258000 0.100000
v 0.513901 0.682000 -0.100000
v 0.513901 0.682000 0.100000
v 0.611901 0.682000 -0.100000
v 0.611901 0.682000 0.100000
v 0.611901 0.279000 -0.100000
v 0.611901 0.279000 0.100000
v 0.652901 0.139000 -0.100000
v 0.652901 0.139000 0.100000
v 0.799901 0.081000 -0.100000
v 0.799901 0.081000 0.100000
v 0.959901 0.136000 -0.100000
v 0.959901 0.136000 0.100000
v 1.002901 0.285000 -0.100000
v 1.002901 0.285000 0.100000
v 1.002901 0.682000 -0.100000
v 1.002901 0.682000 0.100000
v 1.100901 0.682000 -0.100000
v 1.100901 0.682000 0.100000
v 1.100901 0.268000 -0.100000
v 1.100901 0.268000 0.100000
vn -0.0000 -0.0000 1.0000
vn -0.0000 -0.0000 -1.0000
vn -0.7071 -0.7071 -0.0000
vn 0.4344 -0.9007 -0.0000
vn -0.4344 -0.9007 -0.0000
vn 0.7071 -0.7071 -0.0000
vn -0.7071 0.7071 -0.0000
vn 0.4312 0.9022 -0.0000
vn 0.0011 1.0000 -0.0000
vn -0.4303 0.9027 -0.0000
vn 0.7071 0.7071 -0.0000
vn 0.9939 -0.1104 -0.0000
vn 0.1127 -0.9936 -0.0000
vn 0.9989 -0.0477 -0.0000
vn 0.2235 -0.9747 -0.0000
vn -0.8103 -0.5860 -0.0000
vn -0.5090 0.8608 -0.0000
vn -0.0781 0.9969 -0.0000
vn -0.5089 0.8608 -0.0000
vn -0.9949 0.1012 -0.0000
vn -0.9975 0.0703 -0.0000
vn -0.2062 0.9785 -0.0000
vn 0.8066 0.5911 -0.0000
vn 0.5451 -0.8383 -0.0000
vn 0.5451 -0.8384 -0.0000
vn -0.9179 -0.3969 -0.0000
vn -0.0070 -1.0000 -0.0000
vn 0.9899 0.1420 -0.0000
vn 0.7385 0.6742 -0.0000
vn 0.0224 0.9997 -0.0000
vn 0.7385 0.6743 -0.0000
vn -0.7246 0.6892 -0.0000
vn 0.0223 0.9998 -0.0000
vn -0.9901 0.1400 -0.0000
vn 0.9151 -0.4033 -0.0000
vt 0.153846 0.000000
vt 0.076923 0.000000
vt 0.307692 0.000000
vt 0.000000 0.000000
vt 0.384615 0.000000
vt 0.230769 0.000000
vt 0.615385 0.000000
vt 0.923077 0.000000
vt 0.846154 0.000000
vt 0.769231 0.000000
vt 0.692308 0.000000
vt 1.000000 0.000000
vt 0.461538 0.000000
vt 0.538462 0.000000
vt 0.272727 0.000000
vt 0.545455 0.000000
vt 0.363636 0.000000
vt 0.454545 0.000000
vt 0.909091 0.000000
vt 0.818182 0.000000
vt 0.181818 0.000000
vt 0.636364 0.000000
vt 0.090909 0.000000
vt 0.727273 0.000000
vt 0.333333 0.000000
vt 0.666667 0.000000
vt 0.571429 0.000000
vt 0.500000 0.000000
vt 0.428571 0.000000
vt 0.642857 0.000000
vt 0.714286 0.000000
vt 0.357143 0.000000
vt 0.785714 0.000000
vt 0.214286 0.000000
vt 0.142857 0.000000
vt 0.928571 0.000000
vt 0.071429 0.000000
vt 0.857143 0.000000
vt 0.285714 0.000000
vt 0.066667 1.000000
vt 0.000000 1.000000
vt 0.133333 1.000000
vt 0.066667 0.000000
vt 0.200000 1.000000
vt 0.133333 0.000000
vt 0.266667 1.000000
vt 0.200000 0.000000
vt 0.333333 1.000000
vt 0.266667 0.000000
vt 0.400000 1.000000
vt 0.466667 1.000000
vt 0.400000 0.000000
vt 0.533333 1.000000
vt 0.466667 0.000000
vt 0.600000 1.000000
vt 0.533333 0.000000
vt 0.666667 1.000000
vt 0.600000 0.000000
vt 0.733333 1.000000
vt 0.800000 1.000000
vt 0.733333 0.000000
vt 0.866667 1.000000
vt 0.800000 0.000000
vt 0.933333 1.000000
vt 0.866667 0.000000
vt 1.000000 1.000000
vt 0.933333 0.000000
vt 0.250000 1.000000
vt 0.500000 1.000000
vt 0.250000 0.000000
vt 0.750000 1.000000
vt 0.750000 0.000000
vt 0.083333 1.000000
vt 0.166667 1.000000
vt 0.083333 0.000000
vt 0.166667 0.000000
vt 0.416667 1.000000
vt 0.416667 0.000000
vt 0.583333 1.000000
vt 0.583333 0.000000
vt 0.833333 1.000000
vt 0.916667 1.000000
vt 0.833333 0.000000
vt 0.916667 0.000000
s 0
usemtl Material.001
f 39/27/1 38/28/1 37/29/1
f 40/30/1 39/27/1 37/29/1
f 41/31/1 40/30/1 37/29/1
f 37/29/1 36/32/1 41/31/1
f 42/33/1 34/34/1 33/35/1
f 45/12/1 44/36/1 32/37/1
f 43/38/1 32/37/1 44/36/1
f 45/12/1 32/37/1 31/4/1
f 32/37/1 43/38/1 33/35/1
f 42/33/1 33/35/1 43/38/1
f 34/34/1 42/33/1 35/39/1
f 36/32/1 35/39/1 42/33/1
f 41/31/1 36/32/1 42/33/1
f 71/12/2 60/4/2 70/19/2
f 69/20/2 70/19/2 60/4/2
f 61/23/2 67/22/2 68/24/2
f 60/4/2 61/23/2 69/20/2
f 68/24/2 69/20/2 61/23/2
f 84/27/2 82/29/2 83/28/2
f 85/30/2 82/29/2 84/27/2
f 86/31/2 82/29/2 85/30/2
f 82/29/2 86/31/2 81/32/2
f 87/33/2 78/35/2 79/34/2
f 90/12/2 77/37/2 89/36/2
f 88/38/2 89/36/2 77/37/2
f 90/12/2 76/4/2 77/37/2
f 77/37/2 78/35/2 88/38/2
f 87/33/2 88/38/2 78/35/2
f 79/34/2 80/39/2 87/33/2
f 81/32/2 87/33/2 80/39/2
f 86/31/2 87/33/2 81/32/2
s 1
f 94/40/3 91/4/3 92/41/3
f 96/42/4 93/43/3 94/40/3
f 98/44/4 95/45/4 96/42/4
f 100/46/5 97/47/4 98/44/4
f 102/48/5 99/49/5 100/46/5
f 104/50/6 101/25/5 102/48/5
f 106/51/6 103/52/6 104/50/6
f 108/53/3 105/54/6 106/51/6
f 110/55/7 107/56/3 108/53/3
f 112/57/8 109/58/7 110/55/7
f 114/59/9 111/26/8 112/57/8
f 116/60/10 113/61/9 114/59/9
f 118/62/11 115/63/10 116/60/10
f 120/64/6 117/65/11 118/62/11
f 92/66/3 119/67/6 120/64/6
f 94/40/3 93/43/3 91/4/3
f 96/42/4 95/45/4 93/43/3
f 98/44/4 97/47/4 95/45/4
f 100/46/5 99/49/5 97/47/4
f 102/48/5 101/25/5 99/49/5
f 104/50/6 103/52/6 101/25/5
f 106/51/6 105/54/6 103/52/6
f 108/53/3 107/56/3 105/54/6
f 110/55/7 109/58/7 107/56/3
f 112/57/8 111/26/8 109/58/7
f 114/59/9 113/61/9 111/26/8
f 116/60/10 115/63/10 113/61/9
f 118/62/11 117/65/11 115/63/10
f 120/64/6 119/67/6 117/65/11
f 92/66/3 91/12/3 119/67/6
s 0
usemtl Material.002
f 28/25/1 27/4/1 30/12/1
f 30/12/1 29/26/1 28/25/1
f 73/25/2 75/12/2 72/4/2
f 75/12/2 73/25/2 74/26/2
s 1
f 124/68/7 121/4/3 122/41/3
f 126/69/11 123/70/7 124/68/7
f 128/71/6 125/28/11 126/69/11
f 122/66/3 127/72/6 128/71/6
f 124/68/7 123/70/7 121/4/3
f 126/69/11 125/28/11 123/70/7
f 128/71/6 127/72/6 125/28/11
f 122/66/3 121/12/3 127/72/6
s 0
usemtl Material.003
f 18/15/1 21/16/1 19/17/1
f 20/18/1 19/17/1 21/16/1
f 26/12/1 25/19/1 15/4/1
f 24/20/1 15/4/1 25/19/1
f 17/21/1 22/22/1 18/15/1
f 21/16/1 18/15/1 22/22/1
f 16/23/1 23/24/1 22/22/1
f 22/22/1 17/21/1 16/23/1
f 15/4/1 24/20/1 16/23/1
f 23/24/1 16/23/1 24/20/1
f 63/15/2 64/17/2 66/16/2
f 65/18/2 66/16/2 64/17/2
f 62/21/2 63/15/2 67/22/2
f 66/16/2 67/22/2 63/15/2
f 67/22/2 61/23/2 62/21/2
s 1
f 132/73/12 129/4/13 130/41/13
f 134/74/14 131/75/12 132/73/12
f 136/68/15 133/76/14 134/74/14
f 138/48/16 135/70/15 136/68/15
f 140/77/17 137/25/16 138/48/16
f 142/69/18 139/78/19 140/77/17
f 144/79/20 141/28/18 142/69/18
f 146/57/21 143/80/20 144/79/20
f 148/71/22 145/26/21 146/57/21
f 150/81/23 147/72/22 148/71/22
f 152/82/24 149/83/23 150/81/23
f 130/66/13 151/84/25 152/82/24
f 132/73/12 131/75/12 129/4/13
f 134/74/14 133/76/14 131/75/12
f 136/68/15 135/70/15 133/76/14
f 138/48/16 137/25/16 135/70/15
f 140/77/17 139/78/19 137/25/16
f 142/69/18 141/28/18 139/78/19
f 144/79/20 143/80/20 141/28/18
f 146/57/21 145/26/21 143/80/20
f 148/71/22 147/72/22 145/26/21
f 150/81/23 149/83/23 147/72/22
f 152/82/24 151/84/25 149/83/23
f 130/66/13 129/12/13 151/84/25
s 0
usemtl Material.004
f 3/1/1 2/2/1 5/3/1
f 1/4/1 6/5/1 2/2/1
f 5/3/1 2/2/1 6/5/1
f 3/1/1 5/3/1 4/6/1
f 9/7/1 13/8/1 12/9/1
f 12/9/1 11/10/1 9/7/1
f 11/10/1 10/11/1 9/7/1
f 14/12/1 7/13/1 1/4/1
f 6/5/1 1/4/1 7/13/1
f 8/14/1 13/8/1 14/12/1
f 48/1/2 50/3/2 47/2/2
f 46/4/2 47/2/2 51/5/2
f 50/3/2 51/5/2 47/2/2
f 48/1/2 49/6/2 50/3/2
f 54/7/2 57/9/2 58/8/2
f 57/9/2 54/7/2 56/10/2
f 56/10/2 54/7/2 55/11/2
f 59/12/2 46/4/2 52/13/2
f 51/5/2 52/13/2 46/4/2
f 53/14/2 59/12/2 58/8/2
s 1
f 156/73/26 153/4/27 154/41/27
f 158/74/7 155/75/26 156/73/26
f 160/68/11 157/76/7 158/74/7
f 162/48/28 159/70/11 160/68/11
f 164/77/29 161/25/28 162/48/28
f 166/69/30 163/78/31 164/77/29
f 168/79/32 165/28/33 166/69/30
f 170/57/34 167/80/32 168/79/32
f 172/71/7 169/26/34 170/57/34
f 174/81/11 171/72/7 172/71/7
f 176/82/35 173/83/11 174/81/11
f 154/66/27 175/84/35 176/82/35
f 156/73/26 155/75/26 153/4/27
f 158/74/7 157/76/7 155/75/26
f 160/68/11 159/70/11 157/76/7
f 162/48/28 161/25/28 159/70/11
f 164/77/29 163/78/31 161/25/28
f 166/69/30 165/28/33 163/78/31
f 168/79/32 167/80/32 165/28/33
f 170/57/34 169/26/34 167/80/32
f 172/71/7 171/72/7 169/26/34
f 174/81/11 173/83/11 171/72/7
f 176/82/35 175/84/35 173/83/11
f 154/66/27 153/12/27 175/84/35
